# xmcd
#
# Track frame offsets: 
#        150
#        20040
#        35810
#        55136
#        79001
#        102361
#        121836
#        146396
#        164612
#        185743
#        212143
#
# Disc length: 3058 seconds
#
# Revision: 1
# Processed by: cddbd v1.5.2PL0 Copyright (c) Steve Scherf et al.
# Submitted via: ExactAudioCopy v1.0b1
#
DISCID=9d0bf00b
DTITLE=Dakota - Vakarinas 5ata
DYEAR=2003
DGENRE=Country
TTITLE0=Naktstaurinu karnevals
TTITLE1=Vakarinas 5ata
TTITLE2=Dzokonda
TTITLE3=Papira lidmasina
TTITLE4=Piektdienas vakars
TTITLE5=Pirmdienas rits
TTITLE6=Sievietei
TTITLE7=Dzivo brivs
TTITLE8=Ko Tu teiksi rit?
TTITLE9=Nezinu gan
TTITLE10=Mans cels
EXTD=
EXTT0=
EXTT1=
EXTT2=
EXTT3=
EXTT4=
EXTT5=
EXTT6=
EXTT7=
EXTT8=
EXTT9=
EXTT10=
PLAYORDER=
